<?xml version="1.0" encoding="UTF-8" standalone="no"?>
<svg width="29px" height="44px" viewBox="0 0 29 44" version="1.1" xmlns="http://www.w3.org/2000/svg" xmlns:xlink="http://www.w3.org/1999/xlink">
    <!-- Generator: Sketch 44.1 (41455) - http://www.bohemiancoding.com/sketch -->
    <title>Page 1</title>
    <desc>Created with Sketch.</desc>
    <defs></defs>
    <g id="Symbols" stroke="none" stroke-width="1" fill="none" fill-rule="evenodd">
        <g id="Header" transform="translate(-241.000000, -55.000000)" fill="#433B3D">
            <g id="Group-5">
                <path d="M267.086724,69.125987 C266.023845,67.3087219 264.557985,65.795007 262.839252,64.6361069 L265.267246,59.7914121 C265.52012,59.2868405 265.419365,58.7310044 265.014372,58.3289617 C264.609379,57.9249108 264.054261,57.8243901 263.548513,58.0766759 L258.795293,60.4477588 L256.418683,55.705593 C256.217173,55.3015421 255.760806,55 255.306442,55 C254.852058,55 254.395692,55.2522858 254.194202,55.705593 L251.817592,60.4477588 L247.064372,58.0766759 C246.558624,57.8243901 246.001493,57.9249108 245.598513,58.3289617 C245.19352,58.7330126 245.144129,59.2868405 245.345639,59.7914121 L247.773633,64.6361069 C246.0549,65.7457608 244.587017,67.3107402 243.526161,69.125987 C242.261791,71.2447841 241.603915,73.6158671 241.603915,76.0895799 L241.603915,84.8191735 C241.603915,87.2415209 242.261791,89.6638683 243.526161,91.7827664 C245.244894,94.7096854 248.026507,96.8799488 251.264607,97.8890926 C252.580361,98.2931434 253.945475,98.4941749 255.31059,98.4941749 C256.675704,98.4941749 258.040818,98.2931334 259.356572,97.8890926 C262.592548,96.8799488 265.373954,94.7098872 267.095013,91.7827664 C268.359383,89.6639692 269.01726,87.2928863 269.01726,84.8706398 L269.01726,76.1410462 C269.007382,73.6162203 268.351493,71.1938729 267.087124,69.1264916 L267.086724,69.125987 Z M266.478259,83.6561359 L266.478259,84.8170543 C266.478259,86.2302585 266.225385,87.6434626 265.668253,89.0054024 L263.392388,86.7348301 L266.478259,83.6561359 Z M244.934415,88.9541379 C244.377284,87.6414444 244.12441,86.2302585 244.12441,84.7657898 L244.12441,83.6048714 L247.21028,86.6835656 L244.934415,88.9541379 Z M247.21028,74.1207415 L244.12441,77.1994356 L244.12441,76.0385173 C244.12441,74.6253131 244.377284,73.2121089 244.934415,71.8501692 L247.21028,74.1207415 Z M255.302245,82.1938873 L259.802591,86.6837674 L255.302245,91.1736475 L250.801899,86.6837674 L255.302245,82.1938873 Z M248.980398,75.9382084 L253.480744,80.4280885 L248.980398,84.9179686 L244.480052,80.4280885 L248.980398,75.9382084 Z M261.624092,84.9180695 L257.123746,80.4281894 L261.624092,75.9383093 L266.124438,80.4281894 L261.624092,84.9180695 Z M255.302245,78.6623906 L250.801899,74.1725105 L255.302245,69.6826304 L259.802591,74.1725105 L255.302245,78.6623906 Z M255.302245,66.0481001 L254.239365,64.9876924 C254.946603,64.9364481 255.705225,64.9364481 256.414485,64.9876924 L255.302245,66.0481001 Z M266.478259,76.0391227 L266.478259,77.2000411 L263.392388,74.1213469 L265.668253,71.8507747 C266.175974,73.2127144 266.478259,74.6259186 266.478259,76.0391227 Z M264.405856,69.5801015 L261.624244,72.3552454 L257.123898,67.8653653 L259.348379,65.6460575 C261.319986,66.4522116 263.090103,67.8141513 264.405856,69.5801519 L264.405856,69.5801015 Z M260.612748,63.4737757 C260.207755,63.3220107 259.802742,63.1702456 259.399763,63.0204484 L261.322009,62.0625697 L260.612748,63.4737757 Z M255.302396,59.1356204 L256.971769,62.5158465 C255.859528,62.3640815 254.695904,62.3640815 253.583663,62.5158465 L255.302396,59.1356204 Z M249.334067,62.0625394 L251.256313,63.0204182 C250.85132,63.1721832 250.446307,63.272704 250.043328,63.4737455 L249.334067,62.0625394 Z M251.305674,65.6438374 L253.530155,67.8631452 L249.029809,72.3530252 L246.248196,69.5778814 C247.512566,67.8138485 249.282683,66.4519088 251.305674,65.6437869 L251.305674,65.6438374 Z M246.198633,91.2765801 L248.980246,88.5014362 L253.480592,92.9913163 L251.256111,95.2106241 C249.282531,94.4557345 247.512414,93.0425303 246.198633,91.2765297 L246.198633,91.2765801 Z M254.189954,95.8689892 L255.302194,94.7593353 L256.414435,95.8689892 C255.655813,95.9695099 254.948575,95.9695099 254.189954,95.8689892 Z M259.296995,95.2126424 L257.072514,92.9933346 L261.57286,88.5034545 L264.354472,91.2785984 C263.090103,93.0426312 261.319986,94.4558354 259.296995,95.2126928 L259.296995,95.2126424 Z" id="Page-1"></path>
            </g>
        </g>
    </g>
</svg>