<?xml version="1.0" encoding="UTF-8" standalone="no"?>
<svg width="403px" height="511px" viewBox="0 0 403 511" version="1.1" xmlns="http://www.w3.org/2000/svg" xmlns:xlink="http://www.w3.org/1999/xlink">
    <!-- Generator: Sketch 44.1 (41455) - http://www.bohemiancoding.com/sketch -->
    <title>Page 1</title>
    <desc>Created with Sketch.</desc>
    <defs></defs>
    <g id="Page-1" stroke="none" stroke-width="1" fill="none" fill-rule="evenodd" opacity="0.482859142">
        <g id="Homepage" transform="translate(-808.000000, -1116.000000)" fill="#FFFFFF">
            <path d="M1156.57381,1277.67236 C1143.66129,1255.59509 1125.85311,1237.20554 1104.97287,1223.1265 L1134.46966,1164.27012 C1137.54173,1158.14027 1136.31769,1151.38763 1131.39759,1146.50336 C1126.47748,1141.5947 1119.73355,1140.37351 1113.58941,1143.43844 L1055.84433,1172.24383 L1026.97179,1114.63304 C1024.52372,1109.72438 1018.9795,1106.06106 1013.4596,1106.06106 C1007.93946,1106.06106 1002.39524,1109.12599 999.947413,1114.63304 L971.074873,1172.24383 L913.329795,1143.43844 C907.185655,1140.37351 900.417271,1141.5947 895.521621,1146.50336 C890.601517,1151.41203 890.001481,1158.14027 892.449552,1164.27012 L921.946336,1223.1265 C901.066093,1236.60726 883.233343,1255.61961 870.345396,1277.67236 C854.985048,1303.41283 846.992751,1332.21822 846.992751,1362.27043 L846.992751,1468.32297 C846.992751,1497.75116 854.985048,1527.17935 870.345396,1552.92104 C891.225639,1588.47908 925.018405,1614.84479 964.356871,1627.1045 C980.341464,1632.01316 996.925725,1634.45541 1013.50999,1634.45541 C1030.09425,1634.45541 1046.67851,1632.01304 1062.6631,1627.1045 C1101.97576,1614.84479 1135.76601,1588.48153 1156.67451,1552.92104 C1172.03486,1527.18057 1180.02716,1498.37518 1180.02716,1468.94822 L1180.02716,1362.89567 C1179.90716,1332.22251 1171.93901,1302.79433 1156.57867,1277.67849 L1156.57381,1277.67236 Z M1149.1818,1454.19367 L1149.1818,1468.29723 C1149.1818,1485.46571 1146.10973,1502.6342 1139.34134,1519.17989 L1111.69272,1491.59556 L1149.1818,1454.19367 Z M887.453752,1518.5571 C880.685368,1502.60968 877.613298,1485.46571 877.613298,1467.67443 L877.613298,1453.57087 L915.102379,1490.97277 L887.453752,1518.5571 Z M915.102379,1338.35175 L877.613298,1375.75365 L877.613298,1361.65009 C877.613298,1344.4816 880.685368,1327.31311 887.453752,1310.76742 L915.102379,1338.35175 Z M1013.40861,1436.42936 L1068.08162,1490.97522 L1013.40861,1545.52108 L958.735598,1490.97522 L1013.40861,1436.42936 Z M936.606866,1360.43147 L991.279875,1414.97733 L936.606866,1469.5232 L881.933857,1414.97733 L936.606866,1360.43147 Z M1090.21035,1469.52442 L1035.53734,1414.97856 L1090.21035,1360.4327 L1144.88336,1414.97856 L1090.21035,1469.52442 Z M1013.40861,1393.52654 L958.735598,1338.98067 L1013.40861,1284.43481 L1068.08162,1338.98067 L1013.40861,1393.52654 Z M1013.40861,1240.28027 L1000.49608,1227.39778 C1009.08805,1226.77523 1018.30426,1226.77523 1026.9208,1227.39778 L1013.40861,1240.28027 Z M1149.1818,1361.65744 L1149.1818,1375.761 L1111.69272,1338.35911 L1139.34134,1310.77478 C1145.50945,1327.32047 1149.1818,1344.48896 1149.1818,1361.65744 Z M1124.00496,1283.18922 L1090.21219,1316.9034 L1035.53918,1262.35754 L1062.56356,1235.39601 C1086.51588,1245.18967 1108.02037,1261.73536 1124.00496,1283.18984 L1124.00496,1283.18922 Z M1077.92391,1209.00577 C1073.00381,1207.16204 1068.08346,1205.3183 1063.18781,1203.49847 L1086.54045,1191.86156 L1077.92391,1209.00577 Z M1013.41045,1156.30316 L1033.69103,1197.36825 C1020.17883,1195.52451 1006.0424,1195.52451 992.530208,1197.36825 L1013.41045,1156.30316 Z M940.903463,1191.86119 L964.256107,1203.4981 C959.336004,1205.34184 954.415654,1206.56303 949.520004,1209.0054 L940.903463,1191.86119 Z M964.855775,1235.36903 L991.880158,1262.33057 L937.207149,1316.87643 L903.414383,1283.16225 C918.774731,1261.73168 940.279218,1245.18599 964.855775,1235.36842 L964.855775,1235.36903 Z M902.812257,1546.77157 L936.605023,1513.0574 L991.278032,1567.60326 L964.25365,1594.56479 C940.277375,1585.39392 918.772888,1568.22544 902.812257,1546.77096 L902.812257,1546.77157 Z M999.895802,1602.56302 L1013.40799,1589.08225 L1026.92018,1602.56302 C1017.70398,1603.78421 1009.11201,1603.78421 999.895802,1602.56302 Z M1061.93932,1594.58931 L1034.91494,1567.62778 L1089.58795,1513.08192 L1123.38071,1546.79609 C1108.02037,1568.22666 1086.51588,1585.39515 1061.93932,1594.58993 L1061.93932,1594.58931 Z" id="Page-1" transform="translate(1013.509955, 1370.258238) rotate(23.000000) translate(-1013.509955, -1370.258238) "></path>
        </g>
    </g>
</svg>