<?xml version="1.0" encoding="UTF-8" standalone="no"?>
<svg width="99px" height="113px" viewBox="0 0 99 113" version="1.1" xmlns="http://www.w3.org/2000/svg" xmlns:xlink="http://www.w3.org/1999/xlink">
    <!-- Generator: Sketch 44.1 (41455) - http://www.bohemiancoding.com/sketch -->
    <title>header-pineapple</title>
    <desc>Created with Sketch.</desc>
    <defs></defs>
    <g id="Page-1" stroke="none" stroke-width="1" fill="none" fill-rule="evenodd">
        <g id="header-pineapple" transform="translate(49.973271, 56.303467) rotate(23.000000) translate(-49.973271, -56.303467) translate(2.973271, 17.803467)" fill-rule="nonzero" fill="#E4DDD5">
            <path d="M91.482809,47.125987 C90.41993,45.3087219 88.95407,43.795007 87.235337,42.6361069 L89.663331,37.7914121 C89.916205,37.2868405 89.81545,36.7310044 89.410457,36.3289617 C89.005464,35.9249108 88.450346,35.8243901 87.944598,36.0766759 L83.191378,38.4477588 L80.814768,33.705593 C80.613258,33.3015421 80.156891,33 79.702527,33 C79.248143,33 78.791777,33.2522858 78.590287,33.705593 L76.213677,38.4477588 L71.460457,36.0766759 C70.954709,35.8243901 70.397578,35.9249108 69.994598,36.3289617 C69.589605,36.7330126 69.540214,37.2868405 69.741724,37.7914121 L72.169718,42.6361069 C70.450985,43.7457608 68.983102,45.3107402 67.922246,47.125987 C66.657876,49.2447841 66,51.6158671 66,54.0895799 L66,62.8191735 C66,65.2415209 66.657876,67.6638683 67.922246,69.7827664 C69.640979,72.7096854 72.422592,74.8799488 75.660692,75.8890926 C76.976446,76.2931434 78.34156,76.4941749 79.706675,76.4941749 C81.071789,76.4941749 82.436903,76.2931334 83.752657,75.8890926 C86.988633,74.8799488 89.770039,72.7098872 91.491098,69.7827664 C92.755468,67.6639692 93.413345,65.2928863 93.413345,62.8706398 L93.413345,54.1410462 C93.403467,51.6162203 92.747578,49.1938729 91.483209,47.1264916 L91.482809,47.125987 Z M90.874344,61.6561359 L90.874344,62.8170543 C90.874344,64.2302585 90.62147,65.6434626 90.064338,67.0054024 L87.788473,64.7348301 L90.874344,61.6561359 Z M69.3305,66.9541379 C68.773369,65.6414444 68.520495,64.2302585 68.520495,62.7657898 L68.520495,61.6048714 L71.606365,64.6835656 L69.3305,66.9541379 Z M71.606365,52.1207415 L68.520495,55.1994356 L68.520495,54.0385173 C68.520495,52.6253131 68.773369,51.2121089 69.3305,49.8501692 L71.606365,52.1207415 Z M79.69833,60.1938873 L84.198676,64.6837674 L79.69833,69.1736475 L75.197984,64.6837674 L79.69833,60.1938873 Z M73.376483,53.9382084 L77.876829,58.4280885 L73.376483,62.9179686 L68.876137,58.4280885 L73.376483,53.9382084 Z M86.020177,62.9180695 L81.519831,58.4281894 L86.020177,53.9383093 L90.520523,58.4281894 L86.020177,62.9180695 Z M79.69833,56.6623906 L75.197984,52.1725105 L79.69833,47.6826304 L84.198676,52.1725105 L79.69833,56.6623906 Z M79.69833,44.0481001 L78.63545,42.9876924 C79.342688,42.9364481 80.10131,42.9364481 80.81057,42.9876924 L79.69833,44.0481001 Z M90.874344,54.0391227 L90.874344,55.2000411 L87.788473,52.1213469 L90.064338,49.8507747 C90.572059,51.2127144 90.874344,52.6259186 90.874344,54.0391227 Z M88.801941,47.5801015 L86.020329,50.3552454 L81.519983,45.8653653 L83.744464,43.6460575 C85.716071,44.4522116 87.486188,45.8141513 88.801941,47.5801519 L88.801941,47.5801015 Z M85.008833,41.4737757 C84.60384,41.3220107 84.198827,41.1702456 83.795848,41.0204484 L85.718094,40.0625697 L85.008833,41.4737757 Z M79.698481,37.1356204 L81.367854,40.5158465 C80.255613,40.3640815 79.091989,40.3640815 77.979748,40.5158465 L79.698481,37.1356204 Z M73.730152,40.0625394 L75.652398,41.0204182 C75.247405,41.1721832 74.842392,41.272704 74.439413,41.4737455 L73.730152,40.0625394 Z M75.701759,43.6438374 L77.92624,45.8631452 L73.425894,50.3530252 L70.644281,47.5778814 C71.908651,45.8138485 73.678768,44.4519088 75.701759,43.6437869 L75.701759,43.6438374 Z M70.594718,69.2765801 L73.376331,66.5014362 L77.876677,70.9913163 L75.652196,73.2106241 C73.678616,72.4557345 71.908499,71.0425303 70.594718,69.2765297 L70.594718,69.2765801 Z M78.586039,73.8689892 L79.698279,72.7593353 L80.81052,73.8689892 C80.051898,73.9695099 79.34466,73.9695099 78.586039,73.8689892 Z M83.69308,73.2126424 L81.468599,70.9933346 L85.968945,66.5034545 L88.750557,69.2785984 C87.486188,71.0426312 85.716071,72.4558354 83.69308,73.2126928 L83.69308,73.2126424 Z" id="Page-1"></path>
            <path d="M25.482809,14.125987 C24.41993,12.3087219 22.95407,10.795007 21.235337,9.6361069 L23.663331,4.7914121 C23.916205,4.2868405 23.81545,3.7310044 23.410457,3.3289617 C23.005464,2.9249108 22.450346,2.8243901 21.944598,3.0766759 L17.191378,5.4477588 L14.814768,0.705593 C14.613258,0.3015421 14.156891,-5.32907052e-15 13.702527,-5.32907052e-15 C13.248143,-5.32907052e-15 12.791777,0.2522858 12.590287,0.705593 L10.213677,5.4477588 L5.460457,3.0766759 C4.954709,2.8243901 4.397578,2.9249108 3.994598,3.3289617 C3.589605,3.7330126 3.540214,4.2868405 3.741724,4.7914121 L6.169718,9.6361069 C4.450985,10.7457608 2.983102,12.3107402 1.922246,14.125987 C0.657876,16.2447841 3.55271368e-15,18.6158671 3.55271368e-15,21.0895799 L3.55271368e-15,29.8191735 C3.55271368e-15,32.2415209 0.657876,34.6638683 1.922246,36.7827664 C3.640979,39.7096854 6.422592,41.8799488 9.660692,42.8890926 C10.976446,43.2931434 12.34156,43.4941749 13.706675,43.4941749 C15.071789,43.4941749 16.436903,43.2931334 17.752657,42.8890926 C20.988633,41.8799488 23.770039,39.7098872 25.491098,36.7827664 C26.755468,34.6639692 27.413345,32.2928863 27.413345,29.8706398 L27.413345,21.1410462 C27.403467,18.6162203 26.747578,16.1938729 25.483209,14.1264916 L25.482809,14.125987 Z M24.874344,28.6561359 L24.874344,29.8170543 C24.874344,31.2302585 24.62147,32.6434626 24.064338,34.0054024 L21.788473,31.7348301 L24.874344,28.6561359 Z M3.3305,33.9541379 C2.773369,32.6414444 2.520495,31.2302585 2.520495,29.7657898 L2.520495,28.6048714 L5.606365,31.6835656 L3.3305,33.9541379 Z M5.606365,19.1207415 L2.520495,22.1994356 L2.520495,21.0385173 C2.520495,19.6253131 2.773369,18.2121089 3.3305,16.8501692 L5.606365,19.1207415 Z M13.69833,27.1938873 L18.198676,31.6837674 L13.69833,36.1736475 L9.197984,31.6837674 L13.69833,27.1938873 Z M7.376483,20.9382084 L11.876829,25.4280885 L7.376483,29.9179686 L2.876137,25.4280885 L7.376483,20.9382084 Z M20.020177,29.9180695 L15.519831,25.4281894 L20.020177,20.9383093 L24.520523,25.4281894 L20.020177,29.9180695 Z M13.69833,23.6623906 L9.197984,19.1725105 L13.69833,14.6826304 L18.198676,19.1725105 L13.69833,23.6623906 Z M13.69833,11.0481001 L12.63545,9.9876924 C13.342688,9.9364481 14.10131,9.9364481 14.81057,9.9876924 L13.69833,11.0481001 Z M24.874344,21.0391227 L24.874344,22.2000411 L21.788473,19.1213469 L24.064338,16.8507747 C24.572059,18.2127144 24.874344,19.6259186 24.874344,21.0391227 Z M22.801941,14.5801015 L20.020329,17.3552454 L15.519983,12.8653653 L17.744464,10.6460575 C19.716071,11.4522116 21.486188,12.8141513 22.801941,14.5801519 L22.801941,14.5801015 Z M19.008833,8.4737757 C18.60384,8.3220107 18.198827,8.1702456 17.795848,8.0204484 L19.718094,7.0625697 L19.008833,8.4737757 Z M13.698481,4.1356204 L15.367854,7.5158465 C14.255613,7.3640815 13.091989,7.3640815 11.979748,7.5158465 L13.698481,4.1356204 Z M7.730152,7.0625394 L9.652398,8.0204182 C9.247405,8.1721832 8.842392,8.272704 8.439413,8.4737455 L7.730152,7.0625394 Z M9.701759,10.6438374 L11.92624,12.8631452 L7.425894,17.3530252 L4.644281,14.5778814 C5.908651,12.8138485 7.678768,11.4519088 9.701759,10.6437869 L9.701759,10.6438374 Z M4.594718,36.2765801 L7.376331,33.5014362 L11.876677,37.9913163 L9.652196,40.2106241 C7.678616,39.4557345 5.908499,38.0425303 4.594718,36.2765297 L4.594718,36.2765801 Z M12.586039,40.8689892 L13.698279,39.7593353 L14.81052,40.8689892 C14.051898,40.9695099 13.34466,40.9695099 12.586039,40.8689892 Z M17.69308,40.2126424 L15.468599,37.9933346 L19.968945,33.5034545 L22.750557,36.2785984 C21.486188,38.0426312 19.716071,39.4558354 17.69308,40.2126928 L17.69308,40.2126424 Z" id="Page-1"></path>
        </g>
    </g>
</svg>